<svg width="150" height="150" viewBox="0 0 150 150" fill="none" xmlns="http://www.w3.org/2000/svg">
<g filter="url(#filter0_i_148_13)">
<path d="M120.938 78.75C116.688 57.1875 97.75 41 75 41C56.9375 41 41.25 51.25 33.4375 66.25C14.625 68.25 0 84.1875 0 103.5C0 124.188 16.8125 141 37.5 141H118.75C136 141 150 127 150 109.75C150 93.25 137.188 79.875 120.938 78.75Z" fill="#098706"/>
<path d="M97.7003 101.81C97.9035 100.57 97.9035 99.3047 97.7003 98.0654L99.7162 96.7559C99.9506 96.6064 100.052 96.2988 99.974 96.0088C99.4505 94.1103 98.552 92.3877 97.38 90.9639C97.2003 90.7441 96.9112 90.6914 96.6768 90.8408L94.661 92.1504C93.8093 91.333 92.8326 90.7002 91.7778 90.2783V87.6592C91.7778 87.3604 91.5903 87.0967 91.3325 87.0352C89.5901 86.5957 87.8165 86.6133 86.1601 87.0352C85.9022 87.0967 85.7147 87.3604 85.7147 87.6592V90.2783C84.6599 90.7002 83.6832 91.333 82.8316 92.1504L80.8158 90.8408C80.5892 90.6914 80.2923 90.7441 80.1126 90.9639C78.9406 92.3877 78.042 94.1103 77.5185 96.0088C77.4404 96.2988 77.5498 96.6064 77.7764 96.7559L79.7922 98.0654C79.5891 99.3047 79.5891 100.57 79.7922 101.81L77.7764 103.119C77.542 103.269 77.4404 103.576 77.5185 103.866C78.042 105.765 78.9406 107.479 80.1126 108.911C80.2923 109.131 80.5814 109.184 80.8158 109.034L82.8316 107.725C83.6832 108.542 84.6599 109.175 85.7147 109.597V112.216C85.7147 112.515 85.9022 112.778 86.1601 112.84C87.9024 113.279 89.6761 113.262 91.3325 112.84C91.5903 112.778 91.7778 112.515 91.7778 112.216V109.597C92.8326 109.175 93.8093 108.542 94.661 107.725L96.6768 109.034C96.9034 109.184 97.2003 109.131 97.38 108.911C98.552 107.487 99.4505 105.765 99.974 103.866C100.052 103.576 99.9428 103.269 99.7162 103.119L97.7003 101.81ZM88.7541 104.2C86.6601 104.2 84.9646 102.284 84.9646 99.9375C84.9646 97.5908 86.6679 95.6748 88.7541 95.6748C90.8402 95.6748 92.5435 97.5908 92.5435 99.9375C92.5435 102.284 90.8481 104.2 88.7541 104.2ZM67.5018 91.5C73.0259 91.5 77.5029 86.4639 77.5029 80.25C77.5029 74.0361 73.0259 69 67.5018 69C61.9778 69 57.5008 74.0361 57.5008 80.25C57.5008 86.4639 61.9778 91.5 67.5018 91.5ZM83.2223 111.407C83.0425 111.302 82.8628 111.179 82.6909 111.064L82.0737 111.469C81.6049 111.768 81.0736 111.935 80.5423 111.935C79.6906 111.935 78.8702 111.53 78.2842 110.827C76.8544 109.087 75.7605 106.969 75.1433 104.71C74.7135 103.154 75.2917 101.511 76.5419 100.693L77.1591 100.289C77.1513 100.061 77.1513 99.832 77.1591 99.6035L76.5419 99.1992C75.2917 98.3906 74.7135 96.7383 75.1433 95.1826C75.2136 94.9277 75.3152 94.6729 75.3933 94.418C75.0964 94.3916 74.8073 94.3125 74.5026 94.3125H73.1978C71.4632 95.209 69.5333 95.7188 67.5018 95.7188C65.4704 95.7188 63.5483 95.209 61.8059 94.3125H60.5011C54.7036 94.3125 50 99.6035 50 106.125V109.781C50 112.11 51.6799 114 53.7504 114H81.2533C82.0424 114 82.7769 113.719 83.3785 113.253C83.2848 112.919 83.2223 112.576 83.2223 112.216V111.407Z" fill="white"/>
</g>
<defs>
<filter id="filter0_i_148_13" x="0" y="0" width="150" height="154" filterUnits="userSpaceOnUse" color-interpolation-filters="sRGB">
<feFlood flood-opacity="0" result="BackgroundImageFix"/>
<feBlend mode="normal" in="SourceGraphic" in2="BackgroundImageFix" result="shape"/>
<feColorMatrix in="SourceAlpha" type="matrix" values="0 0 0 0 0 0 0 0 0 0 0 0 0 0 0 0 0 0 127 0" result="hardAlpha"/>
<feOffset dy="4"/>
<feGaussianBlur stdDeviation="2"/>
<feComposite in2="hardAlpha" operator="arithmetic" k2="-1" k3="1"/>
<feColorMatrix type="matrix" values="0 0 0 0 0 0 0 0 0 0 0 0 0 0 0 0 0 0 0.25 0"/>
<feBlend mode="normal" in2="shape" result="effect1_innerShadow_148_13"/>
</filter>
</defs>
</svg>
